%TF.GenerationSoftware,KiCad,Pcbnew,(5.1.6)-1*%
%TF.CreationDate,2020-08-24T20:43:34-04:00*%
%TF.ProjectId,PayloadPowerBoard,5061796c-6f61-4645-906f-776572426f61,rev?*%
%TF.SameCoordinates,Original*%
%TF.FileFunction,Legend,Bot*%
%TF.FilePolarity,Positive*%
%FSLAX46Y46*%
G04 Gerber Fmt 4.6, Leading zero omitted, Abs format (unit mm)*
G04 Created by KiCad (PCBNEW (5.1.6)-1) date 2020-08-24 20:43:34*
%MOMM*%
%LPD*%
G01*
G04 APERTURE LIST*
%ADD10C,0.125000*%
%ADD11C,0.300000*%
G04 APERTURE END LIST*
D10*
X67948571Y-95476190D02*
X68115238Y-95238095D01*
X68234285Y-95476190D02*
X68234285Y-94976190D01*
X68043809Y-94976190D01*
X67996190Y-95000000D01*
X67972380Y-95023809D01*
X67948571Y-95071428D01*
X67948571Y-95142857D01*
X67972380Y-95190476D01*
X67996190Y-95214285D01*
X68043809Y-95238095D01*
X68234285Y-95238095D01*
X67734285Y-95476190D02*
X67734285Y-95142857D01*
X67734285Y-94976190D02*
X67758095Y-95000000D01*
X67734285Y-95023809D01*
X67710476Y-95000000D01*
X67734285Y-94976190D01*
X67734285Y-95023809D01*
X67496190Y-95142857D02*
X67496190Y-95642857D01*
X67496190Y-95166666D02*
X67448571Y-95142857D01*
X67353333Y-95142857D01*
X67305714Y-95166666D01*
X67281904Y-95190476D01*
X67258095Y-95238095D01*
X67258095Y-95380952D01*
X67281904Y-95428571D01*
X67305714Y-95452380D01*
X67353333Y-95476190D01*
X67448571Y-95476190D01*
X67496190Y-95452380D01*
X66686666Y-95452380D02*
X66615238Y-95476190D01*
X66496190Y-95476190D01*
X66448571Y-95452380D01*
X66424761Y-95428571D01*
X66400952Y-95380952D01*
X66400952Y-95333333D01*
X66424761Y-95285714D01*
X66448571Y-95261904D01*
X66496190Y-95238095D01*
X66591428Y-95214285D01*
X66639047Y-95190476D01*
X66662857Y-95166666D01*
X66686666Y-95119047D01*
X66686666Y-95071428D01*
X66662857Y-95023809D01*
X66639047Y-95000000D01*
X66591428Y-94976190D01*
X66472380Y-94976190D01*
X66400952Y-95000000D01*
X65972380Y-95476190D02*
X65972380Y-95214285D01*
X65996190Y-95166666D01*
X66043809Y-95142857D01*
X66139047Y-95142857D01*
X66186666Y-95166666D01*
X65972380Y-95452380D02*
X66020000Y-95476190D01*
X66139047Y-95476190D01*
X66186666Y-95452380D01*
X66210476Y-95404761D01*
X66210476Y-95357142D01*
X66186666Y-95309523D01*
X66139047Y-95285714D01*
X66020000Y-95285714D01*
X65972380Y-95261904D01*
X65734285Y-95476190D02*
X65734285Y-95142857D01*
X65734285Y-95190476D02*
X65710476Y-95166666D01*
X65662857Y-95142857D01*
X65591428Y-95142857D01*
X65543809Y-95166666D01*
X65520000Y-95214285D01*
X65520000Y-95476190D01*
X65520000Y-95214285D02*
X65496190Y-95166666D01*
X65448571Y-95142857D01*
X65377142Y-95142857D01*
X65329523Y-95166666D01*
X65305714Y-95214285D01*
X65305714Y-95476190D01*
X64996190Y-95476190D02*
X65043809Y-95452380D01*
X65067619Y-95428571D01*
X65091428Y-95380952D01*
X65091428Y-95238095D01*
X65067619Y-95190476D01*
X65043809Y-95166666D01*
X64996190Y-95142857D01*
X64924761Y-95142857D01*
X64877142Y-95166666D01*
X64853333Y-95190476D01*
X64829523Y-95238095D01*
X64829523Y-95380952D01*
X64853333Y-95428571D01*
X64877142Y-95452380D01*
X64924761Y-95476190D01*
X64996190Y-95476190D01*
X64639047Y-95452380D02*
X64591428Y-95476190D01*
X64496190Y-95476190D01*
X64448571Y-95452380D01*
X64424761Y-95404761D01*
X64424761Y-95380952D01*
X64448571Y-95333333D01*
X64496190Y-95309523D01*
X64567619Y-95309523D01*
X64615238Y-95285714D01*
X64639047Y-95238095D01*
X64639047Y-95214285D01*
X64615238Y-95166666D01*
X64567619Y-95142857D01*
X64496190Y-95142857D01*
X64448571Y-95166666D01*
X63996190Y-95476190D02*
X63996190Y-95214285D01*
X64020000Y-95166666D01*
X64067619Y-95142857D01*
X64162857Y-95142857D01*
X64210476Y-95166666D01*
X63996190Y-95452380D02*
X64043809Y-95476190D01*
X64162857Y-95476190D01*
X64210476Y-95452380D01*
X64234285Y-95404761D01*
X64234285Y-95357142D01*
X64210476Y-95309523D01*
X64162857Y-95285714D01*
X64043809Y-95285714D01*
X63996190Y-95261904D01*
X63781904Y-95452380D02*
X63734285Y-95476190D01*
X63639047Y-95476190D01*
X63591428Y-95452380D01*
X63567619Y-95404761D01*
X63567619Y-95380952D01*
X63591428Y-95333333D01*
X63639047Y-95309523D01*
X63710476Y-95309523D01*
X63758095Y-95285714D01*
X63781904Y-95238095D01*
X63781904Y-95214285D01*
X63758095Y-95166666D01*
X63710476Y-95142857D01*
X63639047Y-95142857D01*
X63591428Y-95166666D01*
X62996190Y-95023809D02*
X62972380Y-95000000D01*
X62924761Y-94976190D01*
X62805714Y-94976190D01*
X62758095Y-95000000D01*
X62734285Y-95023809D01*
X62710476Y-95071428D01*
X62710476Y-95119047D01*
X62734285Y-95190476D01*
X63020000Y-95476190D01*
X62710476Y-95476190D01*
X62400952Y-94976190D02*
X62353333Y-94976190D01*
X62305714Y-95000000D01*
X62281904Y-95023809D01*
X62258095Y-95071428D01*
X62234285Y-95166666D01*
X62234285Y-95285714D01*
X62258095Y-95380952D01*
X62281904Y-95428571D01*
X62305714Y-95452380D01*
X62353333Y-95476190D01*
X62400952Y-95476190D01*
X62448571Y-95452380D01*
X62472380Y-95428571D01*
X62496190Y-95380952D01*
X62520000Y-95285714D01*
X62520000Y-95166666D01*
X62496190Y-95071428D01*
X62472380Y-95023809D01*
X62448571Y-95000000D01*
X62400952Y-94976190D01*
X61758095Y-95476190D02*
X62043809Y-95476190D01*
X61900952Y-95476190D02*
X61900952Y-94976190D01*
X61948571Y-95047619D01*
X61996190Y-95095238D01*
X62043809Y-95119047D01*
X61520000Y-95476190D02*
X61424761Y-95476190D01*
X61377142Y-95452380D01*
X61353333Y-95428571D01*
X61305714Y-95357142D01*
X61281904Y-95261904D01*
X61281904Y-95071428D01*
X61305714Y-95023809D01*
X61329523Y-95000000D01*
X61377142Y-94976190D01*
X61472380Y-94976190D01*
X61520000Y-95000000D01*
X61543809Y-95023809D01*
X61567619Y-95071428D01*
X61567619Y-95190476D01*
X61543809Y-95238095D01*
X61520000Y-95261904D01*
X61472380Y-95285714D01*
X61377142Y-95285714D01*
X61329523Y-95261904D01*
X61305714Y-95238095D01*
X61281904Y-95190476D01*
D11*
X73861428Y-80688571D02*
X73861428Y-79188571D01*
X73218571Y-79331428D02*
X73147142Y-79260000D01*
X73004285Y-79188571D01*
X72647142Y-79188571D01*
X72504285Y-79260000D01*
X72432857Y-79331428D01*
X72361428Y-79474285D01*
X72361428Y-79617142D01*
X72432857Y-79831428D01*
X73290000Y-80688571D01*
X72361428Y-80688571D01*
X70861428Y-80545714D02*
X70932857Y-80617142D01*
X71147142Y-80688571D01*
X71290000Y-80688571D01*
X71504285Y-80617142D01*
X71647142Y-80474285D01*
X71718571Y-80331428D01*
X71790000Y-80045714D01*
X71790000Y-79831428D01*
X71718571Y-79545714D01*
X71647142Y-79402857D01*
X71504285Y-79260000D01*
X71290000Y-79188571D01*
X71147142Y-79188571D01*
X70932857Y-79260000D01*
X70861428Y-79331428D01*
X68575714Y-79902857D02*
X68361428Y-79974285D01*
X68290000Y-80045714D01*
X68218571Y-80188571D01*
X68218571Y-80402857D01*
X68290000Y-80545714D01*
X68361428Y-80617142D01*
X68504285Y-80688571D01*
X69075714Y-80688571D01*
X69075714Y-79188571D01*
X68575714Y-79188571D01*
X68432857Y-79260000D01*
X68361428Y-79331428D01*
X68290000Y-79474285D01*
X68290000Y-79617142D01*
X68361428Y-79760000D01*
X68432857Y-79831428D01*
X68575714Y-79902857D01*
X69075714Y-79902857D01*
X66932857Y-79688571D02*
X66932857Y-80688571D01*
X67575714Y-79688571D02*
X67575714Y-80474285D01*
X67504285Y-80617142D01*
X67361428Y-80688571D01*
X67147142Y-80688571D01*
X67004285Y-80617142D01*
X66932857Y-80545714D01*
X66290000Y-80617142D02*
X66147142Y-80688571D01*
X65861428Y-80688571D01*
X65718571Y-80617142D01*
X65647142Y-80474285D01*
X65647142Y-80402857D01*
X65718571Y-80260000D01*
X65861428Y-80188571D01*
X66075714Y-80188571D01*
X66218571Y-80117142D01*
X66290000Y-79974285D01*
X66290000Y-79902857D01*
X66218571Y-79760000D01*
X66075714Y-79688571D01*
X65861428Y-79688571D01*
X65718571Y-79760000D01*
X63861428Y-80688571D02*
X63861428Y-79188571D01*
X63861428Y-79760000D02*
X63718571Y-79688571D01*
X63432857Y-79688571D01*
X63290000Y-79760000D01*
X63218571Y-79831428D01*
X63147142Y-79974285D01*
X63147142Y-80402857D01*
X63218571Y-80545714D01*
X63290000Y-80617142D01*
X63432857Y-80688571D01*
X63718571Y-80688571D01*
X63861428Y-80617142D01*
X62290000Y-80688571D02*
X62432857Y-80617142D01*
X62504285Y-80545714D01*
X62575714Y-80402857D01*
X62575714Y-79974285D01*
X62504285Y-79831428D01*
X62432857Y-79760000D01*
X62290000Y-79688571D01*
X62075714Y-79688571D01*
X61932857Y-79760000D01*
X61861428Y-79831428D01*
X61789999Y-79974285D01*
X61789999Y-80402857D01*
X61861428Y-80545714D01*
X61932857Y-80617142D01*
X62075714Y-80688571D01*
X62290000Y-80688571D01*
X60504285Y-80688571D02*
X60504285Y-79902857D01*
X60575714Y-79760000D01*
X60718571Y-79688571D01*
X61004285Y-79688571D01*
X61147142Y-79760000D01*
X60504285Y-80617142D02*
X60647142Y-80688571D01*
X61004285Y-80688571D01*
X61147142Y-80617142D01*
X61218571Y-80474285D01*
X61218571Y-80331428D01*
X61147142Y-80188571D01*
X61004285Y-80117142D01*
X60647142Y-80117142D01*
X60504285Y-80045714D01*
X59789999Y-80688571D02*
X59789999Y-79688571D01*
X59789999Y-79974285D02*
X59718571Y-79831428D01*
X59647142Y-79760000D01*
X59504285Y-79688571D01*
X59361428Y-79688571D01*
X58218571Y-80688571D02*
X58218571Y-79188571D01*
X58218571Y-80617142D02*
X58361428Y-80688571D01*
X58647142Y-80688571D01*
X58789999Y-80617142D01*
X58861428Y-80545714D01*
X58932857Y-80402857D01*
X58932857Y-79974285D01*
X58861428Y-79831428D01*
X58789999Y-79760000D01*
X58647142Y-79688571D01*
X58361428Y-79688571D01*
X58218571Y-79760000D01*
M02*
