%TF.GenerationSoftware,KiCad,Pcbnew,(5.1.6)-1*%
%TF.CreationDate,2020-08-24T20:43:34-04:00*%
%TF.ProjectId,PayloadPowerBoard,5061796c-6f61-4645-906f-776572426f61,rev?*%
%TF.SameCoordinates,Original*%
%TF.FileFunction,Legend,Top*%
%TF.FilePolarity,Positive*%
%FSLAX46Y46*%
G04 Gerber Fmt 4.6, Leading zero omitted, Abs format (unit mm)*
G04 Created by KiCad (PCBNEW (5.1.6)-1) date 2020-08-24 20:43:34*
%MOMM*%
%LPD*%
G01*
G04 APERTURE LIST*
%ADD10C,0.250000*%
%ADD11C,0.120000*%
%ADD12C,0.150000*%
G04 APERTURE END LIST*
D10*
X83986666Y-96622380D02*
X83986666Y-96146190D01*
X84272380Y-96717619D02*
X83272380Y-96384285D01*
X84272380Y-96050952D01*
X84272380Y-95717619D02*
X83272380Y-95717619D01*
X84272380Y-95146190D01*
X83272380Y-95146190D01*
X84224761Y-94717619D02*
X84272380Y-94574761D01*
X84272380Y-94336666D01*
X84224761Y-94241428D01*
X84177142Y-94193809D01*
X84081904Y-94146190D01*
X83986666Y-94146190D01*
X83891428Y-94193809D01*
X83843809Y-94241428D01*
X83796190Y-94336666D01*
X83748571Y-94527142D01*
X83700952Y-94622380D01*
X83653333Y-94670000D01*
X83558095Y-94717619D01*
X83462857Y-94717619D01*
X83367619Y-94670000D01*
X83320000Y-94622380D01*
X83272380Y-94527142D01*
X83272380Y-94289047D01*
X83320000Y-94146190D01*
X83748571Y-93717619D02*
X83748571Y-93384285D01*
X84272380Y-93241428D02*
X84272380Y-93717619D01*
X83272380Y-93717619D01*
X83272380Y-93241428D01*
X84272380Y-92241428D02*
X83796190Y-92574761D01*
X84272380Y-92812857D02*
X83272380Y-92812857D01*
X83272380Y-92431904D01*
X83320000Y-92336666D01*
X83367619Y-92289047D01*
X83462857Y-92241428D01*
X83605714Y-92241428D01*
X83700952Y-92289047D01*
X83748571Y-92336666D01*
X83796190Y-92431904D01*
X83796190Y-92812857D01*
X84272380Y-91812857D02*
X83272380Y-91812857D01*
X84224761Y-91384285D02*
X84272380Y-91241428D01*
X84272380Y-91003333D01*
X84224761Y-90908095D01*
X84177142Y-90860476D01*
X84081904Y-90812857D01*
X83986666Y-90812857D01*
X83891428Y-90860476D01*
X83843809Y-90908095D01*
X83796190Y-91003333D01*
X83748571Y-91193809D01*
X83700952Y-91289047D01*
X83653333Y-91336666D01*
X83558095Y-91384285D01*
X83462857Y-91384285D01*
X83367619Y-91336666D01*
X83320000Y-91289047D01*
X83272380Y-91193809D01*
X83272380Y-90955714D01*
X83320000Y-90812857D01*
X84272380Y-89622380D02*
X83272380Y-89622380D01*
X83891428Y-88384285D02*
X83891428Y-87622380D01*
X84272380Y-86384285D02*
X83272380Y-86384285D01*
X83986666Y-86050952D01*
X83272380Y-85717619D01*
X84272380Y-85717619D01*
X84224761Y-85289047D02*
X84272380Y-85146190D01*
X84272380Y-84908095D01*
X84224761Y-84812857D01*
X84177142Y-84765238D01*
X84081904Y-84717619D01*
X83986666Y-84717619D01*
X83891428Y-84765238D01*
X83843809Y-84812857D01*
X83796190Y-84908095D01*
X83748571Y-85098571D01*
X83700952Y-85193809D01*
X83653333Y-85241428D01*
X83558095Y-85289047D01*
X83462857Y-85289047D01*
X83367619Y-85241428D01*
X83320000Y-85193809D01*
X83272380Y-85098571D01*
X83272380Y-84860476D01*
X83320000Y-84717619D01*
X83320000Y-83765238D02*
X83272380Y-83860476D01*
X83272380Y-84003333D01*
X83320000Y-84146190D01*
X83415238Y-84241428D01*
X83510476Y-84289047D01*
X83700952Y-84336666D01*
X83843809Y-84336666D01*
X84034285Y-84289047D01*
X84129523Y-84241428D01*
X84224761Y-84146190D01*
X84272380Y-84003333D01*
X84272380Y-83908095D01*
X84224761Y-83765238D01*
X84177142Y-83717619D01*
X83843809Y-83717619D01*
X83843809Y-83908095D01*
D11*
%TO.C,Sensor*%
X77410000Y-97850000D02*
X80070000Y-97850000D01*
X77410000Y-82550000D02*
X77410000Y-97850000D01*
X80070000Y-82550000D02*
X80070000Y-97850000D01*
X77410000Y-82550000D02*
X80070000Y-82550000D01*
X77410000Y-81280000D02*
X77410000Y-79950000D01*
X77410000Y-79950000D02*
X78740000Y-79950000D01*
%TO.C,3.3V*%
X82490000Y-82610000D02*
X85150000Y-82610000D01*
X82490000Y-82550000D02*
X82490000Y-82610000D01*
X85150000Y-82550000D02*
X85150000Y-82610000D01*
X82490000Y-82550000D02*
X85150000Y-82550000D01*
X82490000Y-81280000D02*
X82490000Y-79950000D01*
X82490000Y-79950000D02*
X83820000Y-79950000D01*
%TO.C,STM32*%
X54610000Y-81280000D02*
X62230000Y-81280000D01*
X54610000Y-96520000D02*
X62230000Y-96520000D01*
X55880000Y-81280000D02*
X55880000Y-96520000D01*
X62230000Y-81280000D02*
X62230000Y-96520000D01*
X54610000Y-81280000D02*
X54610000Y-96520000D01*
%TO.C,Pi*%
X66040000Y-81280000D02*
X73660000Y-81280000D01*
X66040000Y-96520000D02*
X73660000Y-96520000D01*
X67310000Y-81280000D02*
X67310000Y-96520000D01*
X73660000Y-81280000D02*
X73660000Y-96520000D01*
X66040000Y-81280000D02*
X66040000Y-96520000D01*
%TO.C,Sensor*%
D12*
X76406666Y-79144761D02*
X76549523Y-79192380D01*
X76787619Y-79192380D01*
X76882857Y-79144761D01*
X76930476Y-79097142D01*
X76978095Y-79001904D01*
X76978095Y-78906666D01*
X76930476Y-78811428D01*
X76882857Y-78763809D01*
X76787619Y-78716190D01*
X76597142Y-78668571D01*
X76501904Y-78620952D01*
X76454285Y-78573333D01*
X76406666Y-78478095D01*
X76406666Y-78382857D01*
X76454285Y-78287619D01*
X76501904Y-78240000D01*
X76597142Y-78192380D01*
X76835238Y-78192380D01*
X76978095Y-78240000D01*
X77787619Y-79144761D02*
X77692380Y-79192380D01*
X77501904Y-79192380D01*
X77406666Y-79144761D01*
X77359047Y-79049523D01*
X77359047Y-78668571D01*
X77406666Y-78573333D01*
X77501904Y-78525714D01*
X77692380Y-78525714D01*
X77787619Y-78573333D01*
X77835238Y-78668571D01*
X77835238Y-78763809D01*
X77359047Y-78859047D01*
X78263809Y-78525714D02*
X78263809Y-79192380D01*
X78263809Y-78620952D02*
X78311428Y-78573333D01*
X78406666Y-78525714D01*
X78549523Y-78525714D01*
X78644761Y-78573333D01*
X78692380Y-78668571D01*
X78692380Y-79192380D01*
X79120952Y-79144761D02*
X79216190Y-79192380D01*
X79406666Y-79192380D01*
X79501904Y-79144761D01*
X79549523Y-79049523D01*
X79549523Y-79001904D01*
X79501904Y-78906666D01*
X79406666Y-78859047D01*
X79263809Y-78859047D01*
X79168571Y-78811428D01*
X79120952Y-78716190D01*
X79120952Y-78668571D01*
X79168571Y-78573333D01*
X79263809Y-78525714D01*
X79406666Y-78525714D01*
X79501904Y-78573333D01*
X80120952Y-79192380D02*
X80025714Y-79144761D01*
X79978095Y-79097142D01*
X79930476Y-79001904D01*
X79930476Y-78716190D01*
X79978095Y-78620952D01*
X80025714Y-78573333D01*
X80120952Y-78525714D01*
X80263809Y-78525714D01*
X80359047Y-78573333D01*
X80406666Y-78620952D01*
X80454285Y-78716190D01*
X80454285Y-79001904D01*
X80406666Y-79097142D01*
X80359047Y-79144761D01*
X80263809Y-79192380D01*
X80120952Y-79192380D01*
X80882857Y-79192380D02*
X80882857Y-78525714D01*
X80882857Y-78716190D02*
X80930476Y-78620952D01*
X80978095Y-78573333D01*
X81073333Y-78525714D01*
X81168571Y-78525714D01*
%TO.C,3.3V*%
X82343809Y-78192380D02*
X82962857Y-78192380D01*
X82629523Y-78573333D01*
X82772380Y-78573333D01*
X82867619Y-78620952D01*
X82915238Y-78668571D01*
X82962857Y-78763809D01*
X82962857Y-79001904D01*
X82915238Y-79097142D01*
X82867619Y-79144761D01*
X82772380Y-79192380D01*
X82486666Y-79192380D01*
X82391428Y-79144761D01*
X82343809Y-79097142D01*
X83391428Y-79097142D02*
X83439047Y-79144761D01*
X83391428Y-79192380D01*
X83343809Y-79144761D01*
X83391428Y-79097142D01*
X83391428Y-79192380D01*
X83772380Y-78192380D02*
X84391428Y-78192380D01*
X84058095Y-78573333D01*
X84200952Y-78573333D01*
X84296190Y-78620952D01*
X84343809Y-78668571D01*
X84391428Y-78763809D01*
X84391428Y-79001904D01*
X84343809Y-79097142D01*
X84296190Y-79144761D01*
X84200952Y-79192380D01*
X83915238Y-79192380D01*
X83820000Y-79144761D01*
X83772380Y-79097142D01*
X84677142Y-78192380D02*
X85010476Y-79192380D01*
X85343809Y-78192380D01*
%TO.C,STM32*%
X56229523Y-80414761D02*
X56372380Y-80462380D01*
X56610476Y-80462380D01*
X56705714Y-80414761D01*
X56753333Y-80367142D01*
X56800952Y-80271904D01*
X56800952Y-80176666D01*
X56753333Y-80081428D01*
X56705714Y-80033809D01*
X56610476Y-79986190D01*
X56420000Y-79938571D01*
X56324761Y-79890952D01*
X56277142Y-79843333D01*
X56229523Y-79748095D01*
X56229523Y-79652857D01*
X56277142Y-79557619D01*
X56324761Y-79510000D01*
X56420000Y-79462380D01*
X56658095Y-79462380D01*
X56800952Y-79510000D01*
X57086666Y-79462380D02*
X57658095Y-79462380D01*
X57372380Y-80462380D02*
X57372380Y-79462380D01*
X57991428Y-80462380D02*
X57991428Y-79462380D01*
X58324761Y-80176666D01*
X58658095Y-79462380D01*
X58658095Y-80462380D01*
X59039047Y-79462380D02*
X59658095Y-79462380D01*
X59324761Y-79843333D01*
X59467619Y-79843333D01*
X59562857Y-79890952D01*
X59610476Y-79938571D01*
X59658095Y-80033809D01*
X59658095Y-80271904D01*
X59610476Y-80367142D01*
X59562857Y-80414761D01*
X59467619Y-80462380D01*
X59181904Y-80462380D01*
X59086666Y-80414761D01*
X59039047Y-80367142D01*
X60039047Y-79557619D02*
X60086666Y-79510000D01*
X60181904Y-79462380D01*
X60420000Y-79462380D01*
X60515238Y-79510000D01*
X60562857Y-79557619D01*
X60610476Y-79652857D01*
X60610476Y-79748095D01*
X60562857Y-79890952D01*
X59991428Y-80462380D01*
X60610476Y-80462380D01*
%TO.C,Pi*%
X69350000Y-80462380D02*
X69350000Y-79462380D01*
X69730952Y-79462380D01*
X69826190Y-79510000D01*
X69873809Y-79557619D01*
X69921428Y-79652857D01*
X69921428Y-79795714D01*
X69873809Y-79890952D01*
X69826190Y-79938571D01*
X69730952Y-79986190D01*
X69350000Y-79986190D01*
X70350000Y-80462380D02*
X70350000Y-79795714D01*
X70350000Y-79462380D02*
X70302380Y-79510000D01*
X70350000Y-79557619D01*
X70397619Y-79510000D01*
X70350000Y-79462380D01*
X70350000Y-79557619D01*
%TD*%
M02*
